<svg width="14" height="16" viewBox="0 0 14 16" fill="none" xmlns="http://www.w3.org/2000/svg">
<path d="M1.7381 0.572021C1.05714 0.572021 0.5 1.12916 0.5 1.81012V14.1911C0.5 14.872 1.05714 15.4292 1.7381 15.4292H12.2619C12.9429 15.4292 13.5 14.872 13.5 14.1911V1.81012C13.5 1.12916 12.9429 0.572021 12.2619 0.572021H1.7381ZM4.21429 13.572H2.35714V11.7149H4.21429V13.572ZM4.21429 11.0958H2.35714V9.23869H4.21429V11.0958ZM4.21429 8.61964H2.35714V6.7625H4.21429V8.61964ZM6.69048 13.572H4.83333V11.7149H6.69048V13.572ZM6.69048 11.0958H4.83333V9.23869H6.69048V11.0958ZM6.69048 8.61964H4.83333V6.7625H6.69048V8.61964ZM9.16667 13.572H7.30952V11.7149H9.16667V13.572ZM9.16667 11.0958H7.30952V9.23869H9.16667V11.0958ZM9.16667 8.61964H7.30952V6.7625H9.16667V8.61964ZM11.6429 13.572H9.78571V9.23869H11.6429V13.572ZM11.6429 8.61964H9.78571V6.7625H11.6429V8.61964ZM11.6429 5.5244H2.35714V2.42916H11.6429V5.5244Z" fill="#49454F"/>
</svg>
