<svg width="16" height="18" viewBox="0 0 16 18" fill="none" xmlns="http://www.w3.org/2000/svg">
<path d="M8.02906 0.857666L15.4317 5.14338V13.7148L8.02906 18.0005L0.626465 13.7148V5.14338L8.02906 0.857666ZM8.02906 11.7668C8.64905 11.7668 9.24364 11.5205 9.68204 11.0821C10.1204 10.6437 10.3667 10.0491 10.3667 9.42909C10.3667 8.80911 10.1204 8.21451 9.68204 7.77612C9.24364 7.33772 8.64905 7.09143 8.02906 7.09143C7.40908 7.09143 6.81448 7.33772 6.37608 7.77612C5.93769 8.21451 5.6914 8.80911 5.6914 9.42909C5.6914 10.0491 5.93769 10.6437 6.37608 11.0821C6.81448 11.5205 7.40908 11.7668 8.02906 11.7668Z" fill="#49454F"/>
</svg>
